<svg viewBox="0 0 627 269" xmlns="http://www.w3.org/2000/svg" fill="none" preserveAspectRatio="none">
<path d="M20 68.7201C20.52 68.7201 27.8083 65.4426 42.4754 59.4164C57.3668 53.298 71.1675 51.7835 78.6488 50.8108C82.2613 50.3411 84.0736 49.8322 85.3894 50.3113C91.3281 52.4734 78.6055 62.8195 72.2863 70.353C66.7285 76.9789 58.6396 85.4288 52.4583 91.4842C45.7804 98.0263 37.9015 108.015 33.5365 112.913C32.8477 113.686 32.3546 114.278 31.9567 114.865C31.5588 115.452 31.2988 116.03 32.4649 115.846C36.4477 115.218 41.5102 112.163 52.6002 106.934C60.9023 103.02 75.3907 97.4637 105.509 86.7725C135.627 76.0813 181.13 60.6578 205.09 52.4233C230.206 43.7918 231.942 42.8216 232.344 43.2043C234.335 45.0998 220.218 51.3395 206.438 59.2207C201.18 62.2275 199.677 63.4387 187.823 69.8184C175.969 76.1981 153.868 87.7657 135.332 99.2193C116.796 110.673 102.495 121.662 92.008 129.637C81.5208 137.611 75.2804 142.238 71.2857 145.49C67.2909 148.741 65.7308 150.476 59.9869 154.358C44.8246 164.606 33.6625 170.953 32.3546 172.6C30.3416 175.136 28.675 177.958 27.3631 179.999C26.8011 180.874 26.5712 181.463 28.7774 180.797C30.9836 180.131 35.6638 178.203 39.2449 176.535C42.826 174.867 45.1661 173.517 71.2029 163.857C97.2397 154.197 146.902 136.268 187.307 119.994C227.711 103.721 257.353 89.6469 285.363 75.4561C313.374 61.2654 338.855 47.3844 354.192 39.2695C369.529 31.1547 373.949 29.2268 378.956 27.3661C389.27 23.5334 399.47 21.4041 408.247 20.5278C416.698 19.6841 422.091 20.037 423.667 20.3233C424.482 20.4714 424.203 21.9591 421.343 25.9289C418.482 29.8987 412.762 36.6464 402.925 45.7135C393.088 54.7806 379.307 65.9626 337.886 92.5446C296.465 119.127 227.822 160.77 189.73 184.632C151.638 208.495 146.177 213.315 142.715 216.183C135.297 222.327 130.324 227.605 127.299 231.025C125.117 233.492 123.225 235.217 121.653 236.286C120.893 236.803 120.082 237.162 145.291 226.757C170.5 216.353 221.723 195.145 253.181 181.618C284.639 168.09 294.779 162.885 316.124 154.227C337.469 145.568 369.71 133.615 392.17 124.373C414.629 115.131 426.33 108.961 440.418 100.77C454.506 92.5796 470.627 82.5544 480.232 76.8115C489.836 71.0687 492.437 69.9119 496.896 67.2917C507.852 60.8549 514.806 56.0659 516.377 55.3853C517.143 55.0539 517.949 54.8974 514.711 58.4612C511.473 62.0249 504.192 69.351 474.31 93.7539C444.429 118.157 392.166 159.414 359.392 185.103C326.619 210.791 314.918 219.659 308.111 224.999C299.526 231.733 297.096 234.241 295.91 235.506C295.521 235.921 296.544 236.193 297.856 235.81C299.168 235.427 300.988 234.463 332.607 220.182C364.226 205.901 425.589 178.331 469.811 159.502C514.033 140.673 539.255 131.419 554.198 125.784C573.187 118.623 578.879 115.469 583.587 112.753C586.407 111.126 590.375 109.265 592.774 108.175C595.173 107.086 595.953 106.893 585.955 115.566C575.956 124.239 555.155 141.783 525.328 163.93C495.502 186.078 457.28 212.298 436.289 227.058C415.299 241.819 412.699 244.325 411.1 245.905C409.5 247.486 408.98 248.064 409.362 248.362C411.983 250.406 415.528 247.299 429.45 242.476C442.633 237.909 468.074 228.785 485.361 223.153C502.648 217.521 510.968 215.593 525.655 211.612C540.342 207.63 561.143 201.654 572.509 198.286C583.875 194.917 585.175 194.339 588.965 193.174C592.754 192.008 598.995 190.273 607 187.901" stroke="url(#paint0_linear_195_1486)" stroke-width="39" stroke-linecap="round"/>
<defs>
<linearGradient id="paint0_linear_195_1486" x1="313.5" y1="20" x2="313.5" y2="249" gradientUnits="userSpaceOnUse">
<stop stop-color="#EAF8F4"/>
<stop offset="1" stop-color="#E0EFEB"/>
</linearGradient>
</defs>
</svg>
